<?xml version="1.0" encoding="UTF-8" standalone="no"?>
<svg
   xmlns:dc="http://purl.org/dc/elements/1.1/"
   xmlns:cc="http://creativecommons.org/ns#"
   xmlns:rdf="http://www.w3.org/1999/02/22-rdf-syntax-ns#"
   xmlns:svg="http://www.w3.org/2000/svg"
   xmlns="http://www.w3.org/2000/svg"
   xmlns:sodipodi="http://sodipodi.sourceforge.net/DTD/sodipodi-0.dtd"
   xmlns:inkscape="http://www.inkscape.org/namespaces/inkscape"
   id="Capa_1"
   data-name="Capa 1"
   viewBox="0 0 878.04999 239.39409"
   version="1.1"
   sodipodi:docname="Logos web muni pei-02.svg"
   width="878.04999"
   height="239.39409"
   inkscape:version="1.0.2 (e86c870879, 2021-01-15)">
  <metadata
     id="metadata65">
    <rdf:RDF>
      <cc:Work
         rdf:about="">
        <dc:format>image/svg+xml</dc:format>
        <dc:type
           rdf:resource="http://purl.org/dc/dcmitype/StillImage" />
        <dc:title>Logos web muni pei</dc:title>
      </cc:Work>
    </rdf:RDF>
  </metadata>
  <sodipodi:namedview
     pagecolor="#ffffff"
     bordercolor="#666666"
     borderopacity="1"
     objecttolerance="10"
     gridtolerance="10"
     guidetolerance="10"
     inkscape:pageopacity="0"
     inkscape:pageshadow="2"
     inkscape:window-width="1280"
     inkscape:window-height="661"
     id="namedview63"
     showgrid="false"
     fit-margin-top="0"
     fit-margin-left="0"
     fit-margin-right="0"
     fit-margin-bottom="0"
     inkscape:zoom="0.46203704"
     inkscape:cx="438.37"
     inkscape:cy="110.36408"
     inkscape:window-x="0"
     inkscape:window-y="0"
     inkscape:window-maximized="1"
     inkscape:current-layer="Capa_1" />
  <defs
     id="defs4">
    <style
       id="style2">.cls-1{fill:#f1921a;}.cls-2{fill:#fff;}.cls-3{fill:#17a6df;}</style>
  </defs>
  <title
     id="title6">Logos web muni pei</title>
  <rect
     class="cls-1"
     x="0.37000275"
     y="0.11408321"
     width="10.31"
     height="43.459999"
     id="rect8" />
  <rect
     class="cls-1"
     x="0"
     y="173.95412"
     width="10.59"
     height="43.459999"
     id="rect10" />
  <polygon
     class="cls-1"
     points="145.43,473.21 145.43,516.66 145.42,516.66 145.43,516.67 145.43,516.67 145.43,516.67 167.19,538.09 145.51,560.03 145.42,560.03 145.42,571.39 145.43,571.39 145.43,603.58 155.81,603.58 155.83,564.35 181.83,537.81 155.73,511.38 155.99,473.21 "
     id="polygon12"
     transform="translate(-101.63,-429.63592)" />
  <rect
     class="cls-2"
     x="32.000008"
     y="0.11408321"
     width="43.459999"
     height="43.459999"
     id="rect14" />
  <rect
     class="cls-2"
     x="32.000008"
     y="173.94411"
     width="43.459999"
     height="43.459999"
     id="rect16" />
  <polygon
     class="cls-2"
     points="177.09,473.21 177.09,516.66 177.08,516.66 177.09,516.67 177.09,516.67 177.09,516.67 220.55,516.66 220.55,560.12 177.17,560.03 177.08,560.03 177.08,571.39 177.09,571.39 177.09,603.58 220.55,603.58 220.55,560.12 220.55,560.12 225.86,560.12 264,560.12 264,516.66 220.55,516.66 220.55,473.21 "
     id="polygon18"
     transform="translate(-101.63,-429.63592)" />
  <rect
     class="cls-3"
     x="10.580002"
     y="0.11408321"
     width="21.41"
     height="43.459999"
     id="rect20" />
  <rect
     class="cls-3"
     x="10.560005"
     y="173.95412"
     width="21.41"
     height="43.459999"
     id="rect22" />
  <polygon
     class="cls-3"
     points="155.69,473.21 155.62,511.38 181.73,537.81 155.72,564.35 155.68,571.39 155.69,571.39 155.69,603.58 177.09,603.58 177.11,560.12 220.44,560.12 220.57,516.65 176.98,516.65 176.98,473.21 "
     id="polygon24"
     transform="translate(-101.63,-429.63592)" />
  <path
     class="cls-2"
     d="m 239.11,63.094083 c -0.8,6.47 -3.06,11.7 -6.72,15.54 -3.66,3.84 -8.58,5.73 -14.73,5.73 a 24.84,24.84 0 0 1 -11.71,-2.59 22.2,22.2 0 0 1 -8,-7.09 32.1,32.1 0 0 1 -4.62,-10.24 48.38,48.38 0 0 1 -1.5,-12.08 52.08,52.08 0 0 1 1.48,-12.56 32.76,32.76 0 0 1 4.55,-10.44 22.16,22.16 0 0 1 8,-7.15 24.83,24.83 0 0 1 11.78,-2.66 21.55,21.55 0 0 1 13.8,4.81 17.67,17.67 0 0 1 6.85,11.71 l 0.08,0.64 h 22.29 l -0.09,-0.82 a 40.89,40.89 0 0 0 -4.68,-15.2 37.36,37.36 0 0 0 -9.52,-11.3299998 41.38,41.38 0 0 0 -13.17,-7 51.15,51.15 0 0 0 -15.56,-2.35999999 50.55,50.55 0 0 0 -20.36,3.99999999 43.69,43.69 0 0 0 -15.46,11.1399998 49.76,49.76 0 0 0 -9.66,16.75 62.17,62.17 0 0 0 -3.31,20.47 60.21,60.21 0 0 0 3.33,20.1 48.54,48.54 0 0 0 9.66,16.47 44.63,44.63 0 0 0 15.46,11 50.72,50.72 0 0 0 20.36,3.999997 47.78,47.78 0 0 0 16.71,-2.87 40,40 0 0 0 22.73,-21.129997 50.38,50.38 0 0 0 4.27,-16.68 l 0.07,-0.8 h -22.25 z"
     id="path26" />
  <path
     class="cls-2"
     d="m 338.14,94.514083 a 66,66 0 0 1 -0.61,-9.41 v -36.84 a 18.33,18.33 0 0 0 -2.86,-10.48 19.09,19.09 0 0 0 -7.48,-6.48 34.52,34.52 0 0 0 -10.07,-3.08 76.48,76.48 0 0 0 -11.41,-0.83 61,61 0 0 0 -12.13,1.18 34.15,34.15 0 0 0 -10.64,4.06 23.14,23.14 0 0 0 -7.85,7.64 24.31,24.31 0 0 0 -3.39,11.5 l -0.05,0.79 h 20.9 l 0.06,-0.67 c 0.34,-3.51 1.54,-6.08 3.55,-7.64 2.01,-1.56 4.94,-2.38 8.59,-2.38 3.87,0 6.87,0.62 8.94,1.82 2.07,1.2 2.92,3.5 2.92,7 a 5,5 0 0 1 -3.49,5.2 59.89,59.89 0 0 1 -12.56,2.56 c -2.38,0.27 -4.51,0.55 -6.31,0.82 a 60,60 0 0 0 -9.43,1.95 27,27 0 0 0 -7.67,3.66 17.19,17.19 0 0 0 -5.58,6.57 22.39,22.39 0 0 0 -2.07,10.05 c 0,7.15 2.35,12.66 7,16.4 4.65,3.739997 10.59,5.569997 17.85,5.569997 a 41.86,41.86 0 0 0 13.45,-2.11 27.57,27.57 0 0 0 9.77,-5.729997 30.89,30.89 0 0 0 1.27,5.459997 l 0.16,0.51 h 21.56 l -0.67,-1.12 a 16.93,16.93 0 0 1 -1.75,-5.969997 z m -21.53,-26.9 v 5.85 a 29.35,29.35 0 0 1 -0.4,4.74 15.14,15.14 0 0 1 -1.83,5 11,11 0 0 1 -4.5,4.16 17.51,17.51 0 0 1 -8.28,1.69 15.88,15.88 0 0 1 -8.31,-1.87 c -1.93,-1.19 -2.87,-3.29 -2.87,-6.43 0,-3 0.89,-5.09 2.72,-6.46 a 20.55,20.55 0 0 1 8.16,-3.22 c 1.19,-0.18 2.74,-0.41 4.66,-0.68 3,-0.46 5.47,-0.92 7.26,-1.38 a 13.26,13.26 0 0 0 3.39,-1.4 z"
     id="path28" />
  <path
     class="cls-2"
     d="m 356.37,84.824083 a 19.21,19.21 0 0 0 1.8,8.76 13.29,13.29 0 0 0 5.07,5.5 21.16,21.16 0 0 0 7.23,2.629997 52.72,52.72 0 0 0 9,0.69 74.32,74.32 0 0 0 11.49,-0.69 l 0.62,-0.1 V 84.884083 l -0.89,0.18 a 30.45,30.45 0 0 1 -5.88,0.53 c -3.82,0 -5.4,-0.78 -6.05,-1.43 -0.65,-0.65 -1.43,-2.23 -1.43,-6 v -34.37 h 14.25 v -14.43 H 377.24 V 8.0840832 H 356.37 V 29.364083 h -11.82 v 14.48 h 11.82 z"
     id="path30" />
  <path
     class="cls-2"
     d="m 445.64,101.07408 0.17,0.51 h 21.56 l -0.67,-1.12 a 16.72,16.72 0 0 1 -1.75,-5.999997 64.54,64.54 0 0 1 -0.61,-9.41 v -36.79 a 18.34,18.34 0 0 0 -2.87,-10.48 19.06,19.06 0 0 0 -7.47,-6.48 34.68,34.68 0 0 0 -10.08,-3.08 76.25,76.25 0 0 0 -11.4,-0.83 61,61 0 0 0 -12.15,1.18 34.09,34.09 0 0 0 -10.63,4.06 23,23 0 0 0 -7.85,7.64 24.31,24.31 0 0 0 -3.4,11.5 l -0.05,0.79 h 20.93 l 0.07,-0.67 c 0.34,-3.51 1.53,-6.08 3.55,-7.64 2.02,-1.56 4.94,-2.38 8.59,-2.38 3.86,0 6.87,0.62 8.94,1.82 2.07,1.2 2.92,3.5 2.92,7 a 5,5 0 0 1 -3.5,5.2 59.75,59.75 0 0 1 -12.57,2.59 c -2.37,0.27 -4.5,0.55 -6.31,0.82 a 60.29,60.29 0 0 0 -9.43,1.95 27,27 0 0 0 -7.67,3.66 17.28,17.28 0 0 0 -5.58,6.57 22.39,22.39 0 0 0 -2.06,10.05 c 0,7.15 2.35,12.66 7,16.4 4.65,3.739997 10.6,5.569997 17.86,5.569997 a 41.75,41.75 0 0 0 13.42,-2.14 27.53,27.53 0 0 0 9.78,-5.729997 30.8,30.8 0 0 0 1.26,5.439997 z m -2.22,-33.459997 v 5.85 a 30.53,30.53 0 0 1 -0.4,4.74 15.37,15.37 0 0 1 -1.83,5 11,11 0 0 1 -4.51,4.16 17.46,17.46 0 0 1 -8.27,1.69 15.86,15.86 0 0 1 -8.31,-1.87 c -1.93,-1.19 -2.87,-3.29 -2.87,-6.43 0,-3 0.89,-5.09 2.72,-6.46 a 20.42,20.42 0 0 1 8.16,-3.22 c 1.18,-0.18 2.73,-0.41 4.65,-0.68 3,-0.46 5.48,-0.92 7.27,-1.38 a 13.41,13.41 0 0 0 3.39,-1.4 z"
     id="path32" />
  <path
     class="cls-2"
     d="m 561.51,27.364083 a 24.26,24.26 0 0 0 -12.84,3.46 29.83,29.83 0 0 0 -8.4,7.61 18.92,18.92 0 0 0 -7.9,-8.07 27.22,27.22 0 0 0 -12.88,-3 26.14,26.14 0 0 0 -12.61,3.1 27.91,27.91 0 0 0 -8.56,7.28 v -8.38 h -19.85 v 72.269997 h 20.9 V 59.764083 a 19.53,19.53 0 0 1 1.37,-7.78 13.37,13.37 0 0 1 3.3,-4.81 11.54,11.54 0 0 1 4,-2.32 12.91,12.91 0 0 1 3.75,-0.65 12.53,12.53 0 0 1 6.14,1.27 8.08,8.08 0 0 1 3.27,3.39 13.93,13.93 0 0 1 1.36,4.95 c 0.18,1.89 0.27,4.35 0.27,7.32 v 40.449997 h 20.92 V 61.364083 a 38.58,38.58 0 0 1 0.54,-6.78 16.83,16.83 0 0 1 1.84,-5.32 9.68,9.68 0 0 1 3.69,-3.69 12.35,12.35 0 0 1 6.21,-1.41 13.1,13.1 0 0 1 6.09,1.22 7.39,7.39 0 0 1 3.31,3.3 15.05,15.05 0 0 1 1.44,5 62.63,62.63 0 0 1 0.33,7 v 40.859997 h 20.92 V 53.464083 c 0,-8.94 -2.41,-15.6 -7.16,-19.79 -4.75,-4.19 -11.27,-6.31 -19.45,-6.31 z"
     id="path34" />
  <path
     class="cls-2"
     d="m 667.62,94.514083 a 64.54,64.54 0 0 1 -0.61,-9.41 v -36.84 a 18.26,18.26 0 0 0 -2.87,-10.48 19.06,19.06 0 0 0 -7.47,-6.48 34.71,34.71 0 0 0 -10.07,-3.08 76.48,76.48 0 0 0 -11.41,-0.83 60.8,60.8 0 0 0 -12.13,1.18 34.15,34.15 0 0 0 -10.64,4.06 23,23 0 0 0 -7.85,7.64 24.31,24.31 0 0 0 -3.4,11.5 v 0.79 h 20.9 l 0.06,-0.67 c 0.34,-3.51 1.54,-6.08 3.55,-7.64 2.01,-1.56 4.94,-2.38 8.59,-2.38 3.86,0 6.87,0.62 8.94,1.82 2.07,1.2 2.92,3.5 2.92,7 a 5,5 0 0 1 -3.5,5.2 c -2.57,1 -6.8,1.84 -12.55,2.56 -2.38,0.27 -4.51,0.55 -6.32,0.82 a 59.91,59.91 0 0 0 -9.42,1.95 27.08,27.08 0 0 0 -7.68,3.66 17.17,17.17 0 0 0 -5.57,6.57 22.39,22.39 0 0 0 -2.07,10.05 c 0,7.15 2.35,12.66 7,16.4 4.65,3.739997 10.59,5.569997 17.85,5.569997 a 41.75,41.75 0 0 0 13.4,-2.11 27.53,27.53 0 0 0 9.78,-5.729997 30,30 0 0 0 1.27,5.459997 l 0.16,0.51 h 21.56 l -0.67,-1.14 a 16.72,16.72 0 0 1 -1.75,-5.949997 z m -21.53,-26.9 v 5.85 a 29.35,29.35 0 0 1 -0.4,4.74 15.37,15.37 0 0 1 -1.83,5 11,11 0 0 1 -4.49,4.16 17.43,17.43 0 0 1 -8.27,1.69 15.86,15.86 0 0 1 -8.31,-1.87 c -1.93,-1.19 -2.87,-3.29 -2.87,-6.43 0,-3 0.89,-5.09 2.72,-6.46 a 20.49,20.49 0 0 1 8.16,-3.22 c 1.18,-0.18 2.73,-0.41 4.65,-0.68 3,-0.46 5.48,-0.92 7.27,-1.38 a 13.41,13.41 0 0 0 3.37,-1.4 z"
     id="path36" />
  <path
     class="cls-2"
     d="m 722.69,27.364083 a 25,25 0 0 0 -14,4.37 24.27,24.27 0 0 0 -8.17,8.7 v -11.07 h -20 v 72.269997 h 20.92 V 68.944083 c 0,-6.66 1.49,-12.06 4.44,-16.07 2.95,-4.01 7.61,-5.93 14,-5.93 1.16,0 2.4,0.07 3.69,0.2 a 29.61,29.61 0 0 1 3.14,0.47 l 0.89,0.2 v -19.53 l -0.5,-0.17 a 14.15,14.15 0 0 0 -4.41,-0.75 z"
     id="path38" />
  <path
     class="cls-2"
     d="m 780.3,73.624083 a 17,17 0 0 1 -4.71,10.12 c -2.5,2.41 -5.87,3.63 -10,3.63 a 13.19,13.19 0 0 1 -7.14,-1.87 14.1,14.1 0 0 1 -4.76,-4.95 25.19,25.19 0 0 1 -2.66,-6.92 35.75,35.75 0 0 1 -0.87,-7.84 37,37 0 0 1 0.88,-8 25.5,25.5 0 0 1 2.72,-7.19 14.56,14.56 0 0 1 5,-5.15 13.49,13.49 0 0 1 7.28,-1.94 c 8,0 12.42,3.78 13.65,11.56 l 0.09,0.63 h 20.39 v -0.79 c -0.56,-8.77 -4.14,-15.63 -10.64,-20.4 -6.5,-4.77 -14.36,-7.15 -23.43,-7.15 a 40.5,40.5 0 0 0 -15.55,2.86 32,32 0 0 0 -11.7,8.2 36,36 0 0 0 -7.2,12.52 48,48 0 0 0 -2.44,15.5 41.57,41.57 0 0 0 2.58,14.92 33.43,33.43 0 0 0 19.18,19.449997 39.22,39.22 0 0 0 14.72,2.73 c 9.54,0 17.5,-2.59 23.68,-7.699997 6.18,-5.11 10,-12.52 11.15,-22 l 0.11,-0.83 h -20.26 z"
     id="path40" />
  <path
     class="cls-2"
     d="m 877.37,100.46408 a 16.93,16.93 0 0 1 -1.75,-5.999997 66,66 0 0 1 -0.61,-9.41 v -36.79 a 18.33,18.33 0 0 0 -2.86,-10.48 19.09,19.09 0 0 0 -7.48,-6.48 34.52,34.52 0 0 0 -10.07,-3.08 76.48,76.48 0 0 0 -11.41,-0.83 61,61 0 0 0 -12.13,1.18 34.15,34.15 0 0 0 -10.64,4.06 23.14,23.14 0 0 0 -7.85,7.64 24.31,24.31 0 0 0 -3.39,11.5 l -0.05,0.79 h 20.9 l 0.06,-0.67 c 0.34,-3.51 1.54,-6.08 3.55,-7.64 2.01,-1.56 4.94,-2.38 8.59,-2.38 3.87,0 6.87,0.62 8.94,1.82 2.07,1.2 2.92,3.5 2.92,7 a 5,5 0 0 1 -3.49,5.2 59.89,59.89 0 0 1 -12.56,2.56 c -2.38,0.27 -4.51,0.55 -6.31,0.82 a 60,60 0 0 0 -9.43,1.95 27,27 0 0 0 -7.67,3.66 17.19,17.19 0 0 0 -5.58,6.57 22.39,22.39 0 0 0 -2.07,10.05 c 0,7.15 2.35,12.66 7,16.4 4.65,3.739997 10.59,5.569997 17.85,5.569997 a 41.86,41.86 0 0 0 13.46,-2.11 27.57,27.57 0 0 0 9.77,-5.729997 30.89,30.89 0 0 0 1.27,5.459997 l 0.16,0.51 h 21.56 z M 854.09,67.614083 v 5.85 a 29.35,29.35 0 0 1 -0.4,4.74 15.14,15.14 0 0 1 -1.83,5 11,11 0 0 1 -4.49,4.16 17.51,17.51 0 0 1 -8.28,1.69 15.88,15.88 0 0 1 -8.31,-1.87 c -1.93,-1.19 -2.87,-3.29 -2.87,-6.43 0,-3 0.89,-5.09 2.72,-6.46 a 20.55,20.55 0 0 1 8.16,-3.22 c 1.19,-0.18 2.74,-0.41 4.66,-0.68 3,-0.46 5.47,-0.92 7.26,-1.38 a 13.26,13.26 0 0 0 3.39,-1.4 z"
     id="path42" />
  <path
     class="cls-2"
     d="m 239.11,176.01408 c -0.8,6.47 -3.06,11.7 -6.72,15.53 -3.66,3.83 -8.58,5.73 -14.73,5.73 a 25,25 0 0 1 -11.71,-2.58 22.23,22.23 0 0 1 -8,-7.1 32,32 0 0 1 -4.64,-10.23 48.32,48.32 0 0 1 -1.48,-12.07 52.14,52.14 0 0 1 1.48,-12.56 32.8,32.8 0 0 1 4.55,-10.44 22.1,22.1 0 0 1 8,-7.16 24.82,24.82 0 0 1 11.78,-2.65 21.5,21.5 0 0 1 13.78,4.77 17.63,17.63 0 0 1 6.85,11.7 l 0.08,0.65 h 22.29 l -0.09,-0.83 a 40.84,40.84 0 0 0 -4.68,-15.19 37.4,37.4 0 0 0 -9.5,-11.32 41.36,41.36 0 0 0 -13.17,-7 53.51,53.51 0 0 0 -35.92,1.6 43.69,43.69 0 0 0 -15.46,11.14 49.85,49.85 0 0 0 -9.66,16.75 62.25,62.25 0 0 0 -3.33,20.51 60.16,60.16 0 0 0 3.33,20.1 48.59,48.59 0 0 0 9.66,16.48 44.48,44.48 0 0 0 15.46,11 50.72,50.72 0 0 0 20.36,4 47.78,47.78 0 0 0 16.73,-2.87 40.23,40.23 0 0 0 13.45,-8.23 40.64,40.64 0 0 0 9.28,-12.9 50.26,50.26 0 0 0 4.27,-16.67 l 0.07,-0.81 h -22.25 z"
     id="path44" />
  <path
     class="cls-2"
     d="m 338.14,207.42408 a 65.87,65.87 0 0 1 -0.61,-9.41 v -36.84 a 18.38,18.38 0 0 0 -2.86,-10.48 19.14,19.14 0 0 0 -7.48,-6.47 34.22,34.22 0 0 0 -10.07,-3.08 75.17,75.17 0 0 0 -11.41,-0.83 61,61 0 0 0 -12.13,1.17 34.4,34.4 0 0 0 -10.64,4.06 23.33,23.33 0 0 0 -7.85,7.64 24.31,24.31 0 0 0 -3.39,11.51 l -0.05,0.78 h 20.9 l 0.06,-0.67 c 0.34,-3.51 1.54,-6.08 3.55,-7.63 2.01,-1.55 4.94,-2.38 8.59,-2.38 3.87,0 6.87,0.61 8.94,1.82 2.07,1.21 2.92,3.49 2.92,7 a 5.05,5.05 0 0 1 -3.49,5.2 59.89,59.89 0 0 1 -12.56,2.55 c -2.38,0.27 -4.51,0.55 -6.31,0.82 a 60.1,60.1 0 0 0 -9.43,1.94 27,27 0 0 0 -7.67,3.66 17.23,17.23 0 0 0 -5.58,6.58 22.39,22.39 0 0 0 -2.07,10.05 c 0,7.14 2.35,12.66 7,16.39 4.65,3.73 10.59,5.57 17.85,5.57 a 41.59,41.59 0 0 0 13.46,-2.16 27.42,27.42 0 0 0 9.77,-5.73 30.78,30.78 0 0 0 1.27,5.47 l 0.16,0.51 h 21.56 l -0.67,-1.12 a 17,17 0 0 1 -1.76,-5.92 z m -21.53,-26.89 v 5.83 a 29.25,29.25 0 0 1 -0.4,4.74 15.14,15.14 0 0 1 -1.83,5 11,11 0 0 1 -4.5,4.17 17.51,17.51 0 0 1 -8.28,1.69 15.78,15.78 0 0 1 -8.31,-1.88 c -1.93,-1.19 -2.87,-3.29 -2.87,-6.42 0,-3.13 0.89,-5.09 2.72,-6.46 a 20.4,20.4 0 0 1 8.16,-3.22 c 1.19,-0.18 2.74,-0.41 4.66,-0.68 3,-0.46 5.47,-0.93 7.26,-1.39 a 12.9,12.9 0 0 0 3.39,-1.38 z"
     id="path46" />
  <path
     class="cls-2"
     d="m 416.54,151.90408 a 29,29 0 0 0 -10.33,-8.54 32.5,32.5 0 0 0 -14.5,-3.08 27.72,27.72 0 0 0 -12.52,2.81 22.52,22.52 0 0 0 -8.11,6.88 v -7.78 h -20 v 97.2 H 372 v -32.48 a 23.17,23.17 0 0 0 8.32,6.69 28.36,28.36 0 0 0 12.44,2.81 30,30 0 0 0 13.69,-3 29.31,29.31 0 0 0 10,-8.29 36.72,36.72 0 0 0 6.08,-11.94 48.61,48.61 0 0 0 2,-14 53.58,53.58 0 0 0 -2,-14.79 38.06,38.06 0 0 0 -5.99,-12.49 z m -16.48,41.94 a 14.38,14.38 0 0 1 -4.95,4.7 16.8,16.8 0 0 1 -14.95,0 14.52,14.52 0 0 1 -5.09,-4.76 20.69,20.69 0 0 1 -2.84,-6.88 38,38 0 0 1 -0.87,-8.33 39.63,39.63 0 0 1 0.87,-8.53 22.67,22.67 0 0 1 2.78,-7 13.67,13.67 0 0 1 5,-4.81 14.94,14.94 0 0 1 7.44,-1.76 14.55,14.55 0 0 1 7.44,1.82 14.14,14.14 0 0 1 5,5 24.76,24.76 0 0 1 2.88,7.07 36.1,36.1 0 0 1 0.94,8.25 38.78,38.78 0 0 1 -0.88,8.47 20.93,20.93 0 0 1 -2.77,6.76 z"
     id="path48" />
  <rect
     class="cls-2"
     x="435.33997"
     y="115.24409"
     width="20.92"
     height="17.5"
     id="rect50" />
  <rect
     class="cls-2"
     x="435.33997"
     y="142.22408"
     width="20.92"
     height="72.269997"
     id="rect52" />
  <path
     class="cls-2"
     d="m 496.25,121.00408 h -20.88 v 21.22 h -11.82 v 14.49 h 11.82 v 41 a 19.17,19.17 0 0 0 1.79,8.75 13.29,13.29 0 0 0 5.07,5.5 21,21 0 0 0 7.23,2.63 52.74,52.74 0 0 0 9,0.7 74.1,74.1 0 0 0 11.49,-0.7 l 0.62,-0.1 v -16.69 l -0.88,0.17 a 29.72,29.72 0 0 1 -5.88,0.54 c -3.83,0 -5.41,-0.78 -6.06,-1.43 -0.65,-0.65 -1.42,-2.23 -1.42,-6.05 v -34.32 h 14.24 v -14.49 h -14.32 z"
     id="path54" />
  <path
     class="cls-2"
     d="m 583.95,207.42408 a 64.44,64.44 0 0 1 -0.61,-9.41 v -36.84 a 18.3,18.3 0 0 0 -2.87,-10.48 19.11,19.11 0 0 0 -7.47,-6.47 34.38,34.38 0 0 0 -10.08,-3.08 74.94,74.94 0 0 0 -11.4,-0.83 61,61 0 0 0 -12.15,1.17 34.44,34.44 0 0 0 -10.63,4.06 23.15,23.15 0 0 0 -7.85,7.64 24.32,24.32 0 0 0 -3.4,11.51 v 0.78 h 20.88 l 0.07,-0.67 c 0.34,-3.51 1.54,-6.08 3.55,-7.63 2.01,-1.55 4.94,-2.38 8.59,-2.38 3.86,0 6.87,0.61 8.94,1.82 2.07,1.21 2.92,3.49 2.92,7 a 5,5 0 0 1 -3.5,5.2 59.75,59.75 0 0 1 -12.57,2.55 c -2.37,0.27 -4.5,0.55 -6.31,0.82 a 60,60 0 0 0 -9.42,1.94 27,27 0 0 0 -7.68,3.66 17.31,17.31 0 0 0 -5.59,6.58 22.39,22.39 0 0 0 -2.06,10.05 c 0,7.14 2.35,12.66 7,16.39 4.65,3.73 10.6,5.57 17.86,5.57 a 41.48,41.48 0 0 0 13.45,-2.16 27.38,27.38 0 0 0 9.78,-5.73 29.93,29.93 0 0 0 1.27,5.47 l 0.16,0.51 h 21.54 l -0.67,-1.12 a 16.78,16.78 0 0 1 -1.75,-5.92 z m -21.53,-26.89 v 5.83 a 30.42,30.42 0 0 1 -0.4,4.74 15.37,15.37 0 0 1 -1.83,5 11.06,11.06 0 0 1 -4.51,4.17 17.46,17.46 0 0 1 -8.27,1.69 15.76,15.76 0 0 1 -8.31,-1.88 c -1.93,-1.19 -2.87,-3.29 -2.87,-6.42 0,-3.13 0.89,-5.09 2.72,-6.46 a 20.28,20.28 0 0 1 8.16,-3.22 c 1.18,-0.18 2.73,-0.41 4.65,-0.68 3,-0.46 5.48,-0.93 7.27,-1.39 a 13,13 0 0 0 3.39,-1.38 z"
     id="path56" />
  <rect
     class="cls-2"
     x="597.47998"
     y="115.24409"
     width="20.92"
     height="99.25"
     id="rect58" />
  <path
     class="cls-2"
     d="m 638.1,196.10408 a 9.53,9.53 0 1 0 9,9.52 9.29,9.29 0 0 0 -9,-9.52 z"
     id="path60" />
</svg>
